<svg id="Capa_1" enable-background="new 0 0 512 512" height="512" viewBox="0 0 512 512" width="512" xmlns="http://www.w3.org/2000/svg"><g><g><g><g><path d="m312.901 268.624c-53.59 36.642-140.889 121.608-179.688 166.375-5.615 6.478-1.011 16.552 7.562 16.552h361.2c8.573 0 13.177-10.074 7.562-16.552-38.8-44.767-126.098-129.732-179.688-166.375-5.113-3.496-11.835-3.496-16.948 0z" fill="#eae9ff"/><path d="m501.966 451.547h-227.677c65.391-8.204 117.876-57.938 130.192-121.958 40.637 36.816 81.666 78.426 105.058 105.414 5.612 6.474.995 16.544-7.573 16.544z" fill="#dad2ff"/><path d="m501.964 451.547h-139.853c42.56-6.773 80.068-28.674 106.831-60.029 15.992 16.26 30.06 31.334 40.572 43.459 5.622 6.485 1.033 16.57-7.55 16.57z" fill="#c3b9f9"/><circle cx="411.419" cy="402.157" fill="#ab97f2" r="5.559"/><circle cx="402.37" cy="384.276" fill="#c3b9f9" r="7.288"/><circle cx="459.412" cy="433.216" fill="#eae9ff" r="7.288"/><circle cx="328.663" cy="320.863" fill="#c3b9f9" r="5.795"/><g fill="#fafaff"><circle cx="367.158" cy="332.59" r="7.288"/><circle cx="335.951" cy="339.879" r="7.288"/></g></g></g><g><g><path d="m182.152 268.624c-53.59 36.642-140.889 121.608-179.689 166.375-5.615 6.478-1.011 16.552 7.562 16.552h361.2c8.573 0 13.177-10.074 7.562-16.552-38.8-44.767-126.098-129.732-179.688-166.375-5.113-3.496-11.835-3.496-16.947 0z" fill="#f1eee0"/><path d="m371.217 451.547h-227.677c65.391-8.204 117.876-57.938 130.192-121.958 40.637 36.816 81.666 78.426 105.058 105.414 5.611 6.474.994 16.544-7.573 16.544z" fill="#e8e4d8"/><path d="m371.215 451.547h-139.853c42.56-6.773 80.068-28.674 106.831-60.029 15.992 16.26 30.06 31.334 40.572 43.459 5.622 6.485 1.032 16.57-7.55 16.57z" fill="#d8d4c9"/><circle cx="280.669" cy="402.157" fill="#b5b1a4" r="5.559"/><circle cx="92.553" cy="413.275" fill="#b5b1a4" r="7.288"/><circle cx="271.621" cy="384.276" fill="#d8d4c9" r="7.288"/><circle cx="328.663" cy="433.216" fill="#f1eee0" r="7.288"/><circle cx="182.725" cy="396.363" fill="#d8d4c9" r="5.795"/><circle cx="203.393" cy="329.589" fill="#d8d4c9" r="7.288"/><circle cx="169.642" cy="414.245" fill="#e8e4d8" r="7.288"/></g><path d="m100.459 391.01c24.073-23.229 50.004-46.801 73.147-65.714 7.642-6.245 9.52-17.154 4.413-25.598l-.208-.344c-6.231-10.303-20.135-12.7-29.458-5.08-24.118 19.711-50.838 43.961-75.649 67.892-7.437 7.173-8.172 18.865-1.596 26.836.085.103.171.207.256.31 7.366 8.943 20.757 9.744 29.095 1.698z" fill="#f9f8f2"/><path d="m130.221 363.04c7.836-7.165 15.67-14.162 23.357-20.835 7.814-6.784 9.092-18.412 2.952-26.742-.079-.108-.159-.215-.238-.323-6.851-9.298-20.183-10.748-28.906-3.179-7.97 6.915-16.073 14.147-24.166 21.541-7.532 6.881-8.569 18.377-2.427 26.523.083.11.166.221.25.331 7.03 9.326 20.559 10.565 29.178 2.684z" fill="#fff"/><circle cx="79.336" cy="397.057" fill="#d8d4c9" r="5.928"/><circle cx="147.032" cy="326.658" fill="#f1eee0" r="5.795"/></g><g><g><path d="m217.404 241.05-12.666-3.927c-18.29-5.671-32.61-19.991-38.281-38.281l-3.927-12.666c-.383-1.236-1.527-2.079-2.821-2.079-1.294 0-2.438.843-2.821 2.079l-3.927 12.666c-5.671 18.29-19.991 32.61-38.281 38.281l-12.666 3.927c-1.236.383-2.079 1.527-2.079 2.821 0 1.294.843 2.438 2.079 2.821l12.666 3.927c18.29 5.671 32.61 19.991 38.281 38.281l3.927 12.666c.383 1.236 1.527 2.079 2.821 2.079 1.294 0 2.438-.843 2.821-2.079l3.927-12.666c5.671-18.29 19.991-32.61 38.281-38.281l12.666-3.927c1.236-.383 2.079-1.527 2.079-2.821 0-1.294-.843-2.438-2.079-2.821z" fill="#dad2ff"/><path d="m219.479 243.866c0 1.296-.841 2.44-2.081 2.826l-12.654 3.929c-18.292 5.666-32.614 19.988-38.28 38.28l-3.929 12.668c-.386 1.241-1.53 2.081-2.826 2.081s-2.44-.841-2.826-2.081l-3.929-12.668c-1.916-6.203-4.838-11.951-8.588-17.065 19.919-3.543 35.027-20.953 35.027-41.878 0-3.487-.414-6.878-1.213-10.132 6.975 7.995 16.114 14.06 26.563 17.3l12.654 3.929c1.241.385 2.082 1.515 2.082 2.811z" fill="#c3b9f9"/></g><g><path d="m362.69 137.131-9.962-3.089c-14.385-4.46-25.648-15.723-30.108-30.108l-3.089-9.962c-.301-.972-1.201-1.635-2.219-1.635-1.018 0-1.917.663-2.219 1.635l-3.089 9.962c-4.46 14.385-15.723 25.648-30.108 30.108l-9.962 3.089c-.972.301-1.635 1.201-1.635 2.219 0 1.018.663 1.917 1.635 2.219l9.962 3.089c14.385 4.46 25.648 15.723 30.108 30.108l3.089 9.962c.301.972 1.201 1.635 2.219 1.635 1.018 0 1.917-.663 2.219-1.635l3.089-9.962c4.46-14.385 15.723-25.648 30.108-30.108l9.962-3.089c.972-.301 1.635-1.201 1.635-2.219 0-1.019-.663-1.918-1.635-2.219z" fill="#ffe059"/><path d="m364.322 139.345c0 1.019-.661 1.919-1.637 2.222l-9.952 3.09c-14.387 4.456-25.651 15.72-30.107 30.107l-3.09 9.963c-.304.976-1.203 1.637-2.223 1.637-1.019 0-1.919-.661-2.222-1.637l-3.09-9.963c-1.507-4.879-3.805-9.399-6.754-13.422 15.666-2.786 27.548-16.479 27.548-32.936 0-2.743-.325-5.41-.954-7.968 5.486 6.288 12.674 11.058 20.891 13.606l9.952 3.09c.976.303 1.638 1.192 1.638 2.211z" fill="#ffc751"/></g><g><g><g><g><g><path d="m231.247 192.738c1.573-1.036 1.573-3.337 0-4.373-4.059-2.674-7.913-5.786-11.491-9.337s-6.714-7.375-9.408-11.404c-1.044-1.561-3.363-1.561-4.407 0-2.695 4.029-5.83 7.853-9.408 11.404s-7.432 6.662-11.491 9.337c-1.573 1.036-1.573 3.337 0 4.373 4.059 2.674 7.913 5.786 11.491 9.337s6.714 7.375 9.408 11.404c1.044 1.561 3.363 1.561 4.407 0 2.695-4.029 5.83-7.853 9.408-11.404 3.578-3.552 7.431-6.663 11.491-9.337z" fill="#ffe059"/></g></g><g><g><path d="m231.248 192.736c-4.059 2.674-7.912 5.785-11.491 9.337-3.58 3.553-6.714 7.376-9.409 11.404-1.045 1.558-3.36 1.558-4.405 0-2.695-4.028-5.829-7.851-9.409-11.404-.466-.462-.938-.918-1.417-1.367.632.053 1.271.079 1.916.079 12.283 0 22.298-9.68 22.71-21.771l.013.013c3.58 3.553 7.432 6.663 11.491 9.337 1.571 1.037 1.571 3.335.001 4.372z" fill="#ffc751"/></g></g></g></g></g><g><g><g><g><g><path d="m318.714 218.659c1.573-1.036 1.573-3.337 0-4.373-4.059-2.674-7.913-5.786-11.491-9.337s-6.714-7.375-9.408-11.404c-1.044-1.561-3.363-1.561-4.407 0-2.695 4.029-5.83 7.853-9.408 11.404s-7.432 6.662-11.491 9.337c-1.573 1.036-1.573 3.337 0 4.373 4.059 2.674 7.913 5.786 11.491 9.337s6.714 7.375 9.408 11.404c1.044 1.561 3.363 1.561 4.407 0 2.695-4.029 5.83-7.853 9.408-11.404s7.431-6.663 11.491-9.337z" fill="#ffe059"/></g></g><g><g><path d="m318.715 218.657c-4.059 2.674-7.912 5.785-11.491 9.337-3.58 3.553-6.714 7.376-9.409 11.404-1.045 1.558-3.36 1.558-4.405 0-2.695-4.028-5.829-7.851-9.409-11.404-.466-.462-.938-.918-1.417-1.367.632.053 1.271.079 1.916.079 12.283 0 22.298-9.68 22.71-21.771l.013.013c3.58 3.553 7.432 6.663 11.491 9.337 1.571 1.038 1.571 3.336.001 4.372z" fill="#ffc751"/></g></g></g></g></g><g><g><g><g><g><path d="m400.421 257.211c1.573-1.036 1.573-3.337 0-4.373-4.059-2.674-7.913-5.786-11.491-9.337s-6.714-7.375-9.408-11.404c-1.044-1.561-3.363-1.561-4.407 0-2.695 4.029-5.83 7.853-9.408 11.404s-7.432 6.662-11.491 9.337c-1.573 1.036-1.573 3.337 0 4.373 4.059 2.674 7.913 5.786 11.491 9.337s6.714 7.375 9.408 11.404c1.044 1.561 3.363 1.561 4.407 0 2.695-4.029 5.83-7.853 9.408-11.404s7.432-6.662 11.491-9.337z" fill="#dad2ff"/></g></g><g><g><path d="m400.422 257.21c-4.059 2.674-7.912 5.785-11.491 9.337s-6.714 7.376-9.409 11.404c-1.045 1.558-3.36 1.558-4.405 0-2.695-4.028-5.829-7.851-9.409-11.404-.466-.462-.938-.918-1.417-1.367.632.053 1.271.079 1.916.079 12.283 0 22.298-9.68 22.71-21.771l.013.013c3.58 3.553 7.432 6.663 11.491 9.337 1.571 1.037 1.571 3.335.001 4.372z" fill="#c3b9f9"/></g></g></g></g></g></g></g><g><path d="m271.261 93.354-7.318-2.269c-10.567-3.276-18.841-11.55-22.117-22.117l-2.269-7.318c-.221-.714-.882-1.201-1.63-1.201-.748 0-1.408.487-1.63 1.201l-2.269 7.318c-3.276 10.567-11.55 18.841-22.117 22.117l-7.318 2.269c-.714.221-1.201.882-1.201 1.63 0 .748.487 1.408 1.201 1.63l7.318 2.269c10.567 3.276 18.841 11.55 22.117 22.117l2.269 7.318c.221.714.882 1.201 1.63 1.201.748 0 1.408-.487 1.63-1.201l2.269-7.318c3.276-10.567 11.55-18.841 22.117-22.117l7.318-2.269c.714-.221 1.201-.882 1.201-1.63 0-.748-.487-1.409-1.201-1.63z" fill="#dad2ff"/><path d="m272.46 94.981c0 .749-.486 1.41-1.203 1.633l-7.311 2.27c-10.568 3.273-18.843 11.548-22.116 22.116l-2.27 7.319c-.223.717-.884 1.203-1.633 1.203s-1.41-.486-1.633-1.203l-2.27-7.319c-1.107-3.584-2.795-6.905-4.962-9.86 11.508-2.047 20.237-12.105 20.237-24.195 0-2.015-.239-3.974-.701-5.854 4.03 4.619 9.31 8.123 15.347 9.995l7.311 2.27c.718.223 1.204.876 1.204 1.625z" fill="#c3b9f9"/></g></g></svg>